<mxfile host="app.diagrams.net" modified="2024-01-29T09:54:19.788Z" agent="Mozilla/5.0 (Windows NT 10.0; Win64; x64) AppleWebKit/537.36 (KHTML, like Gecko) Chrome/121.0.0.0 Safari/537.36" version="23.0.2" etag="ZQO5_HcBCygPxy66rsJF" type="github">
  <diagram name="第 1 页" id="bBVbz_ZRWYbB1IDC5z1x">
    <mxGraphModel>
      <root>
        <mxCell id="0" />
        <mxCell id="1" parent="0" />
      </root>
    </mxGraphModel>
  </diagram>
</mxfile>
